<svg xmlns="http://www.w3.org/2000/svg" width="29.25" height="29.25" viewBox="0 0 29.25 29.25">
  <path id="Icon_awesome-check-circle" data-name="Icon awesome-check-circle" d="M29.812,15.188A14.625,14.625,0,1,1,15.188.563,14.625,14.625,0,0,1,29.812,15.188ZM13.5,22.931,24.347,12.081a.944.944,0,0,0,0-1.334L23.012,9.412a.944.944,0,0,0-1.334,0l-8.849,8.849L8.7,14.129a.944.944,0,0,0-1.334,0L6.028,15.464a.944.944,0,0,0,0,1.334l6.133,6.133A.944.944,0,0,0,13.5,22.931Z" transform="translate(-0.563 -0.563)" fill="#fff"/>
</svg>
