<svg xmlns="http://www.w3.org/2000/svg" width="27.5" height="22" viewBox="0 0 27.5 22"><path d="M26.813,8.938h-2.75V6.188a.69.69,0,0,0-.687-.687H22a.69.69,0,0,0-.687.688v2.75h-2.75a.69.69,0,0,0-.687.688V11a.69.69,0,0,0,.688.688h2.75v2.75a.69.69,0,0,0,.688.688h1.375a.69.69,0,0,0,.688-.687v-2.75h2.75A.69.69,0,0,0,27.5,11V9.625A.69.69,0,0,0,26.813,8.938ZM9.625,11a5.5,5.5,0,1,0-5.5-5.5A5.5,5.5,0,0,0,9.625,11Zm3.85,1.375h-.718a7.48,7.48,0,0,1-6.265,0H5.775A5.776,5.776,0,0,0,0,18.15v1.787A2.063,2.063,0,0,0,2.063,22H17.188a2.063,2.063,0,0,0,2.063-2.062V18.15A5.776,5.776,0,0,0,13.475,12.375Z" fill="#fff"/></svg>